<?xml version="1.0" encoding="iso-8859-1"?>
<!-- Uploaded to: SVG Repo, www.svgrepo.com, Generator: SVG Repo Mixer Tools -->
<!DOCTYPE svg PUBLIC "-//W3C//DTD SVG 1.1//EN" "http://www.w3.org/Graphics/SVG/1.1/DTD/svg11.dtd">
<svg fill="#000000" version="1.1" id="Capa_1" xmlns="http://www.w3.org/2000/svg" xmlns:xlink="http://www.w3.org/1999/xlink" 
	 width="800px" height="800px" viewBox="0 0 546.975 546.975"
	 xml:space="preserve">
<g>
	<g id="Layer_1_154_">
		<g>
			<path d="M488.324,7.013H270.3c-31.875,0-57.375,25.5-57.375,57.375v137.7c0,2.55,0,3.825,0,6.375v79.05l35.7-12.75V64.388
				c0-11.475,10.2-21.675,21.675-21.675H489.6c11.475,0,21.676,10.2,21.676,21.675v418.199c0,11.477-10.201,21.676-21.676,21.676
				H271.575c-11.475,0-21.675-10.199-21.675-21.676v-24.225l-35.7,12.75v11.475c0,31.875,25.5,57.375,57.375,57.375H489.6
				c31.875,0,57.375-25.5,57.375-57.375V64.388C545.699,32.513,520.199,7.013,488.324,7.013z"/>
			<path d="M381.225,80.963h-76.5c-7.65,0-15.299,6.375-15.299,15.3v100.725c0,7.65,6.375,15.3,15.299,15.3h76.5
				c7.65,0,15.301-6.375,15.301-15.3V96.263C396.525,87.338,388.875,80.963,381.225,80.963z"/>
			<path d="M474.301,267.113H325.125c17.85,6.375,34.426,19.125,44.625,35.701h104.551c10.199,0,17.85-7.65,17.85-17.852
				C492.15,274.763,484.5,267.113,474.301,267.113z"/>
			<path d="M474.301,338.513H382.5c1.275,11.475,0,24.225-3.824,35.699h95.625c10.199,0,17.85-7.648,17.85-17.85
				C492.15,347.438,484.5,338.513,474.301,338.513z"/>
			<path d="M474.301,409.913H357c-8.926,8.924-19.125,15.299-30.6,19.125l-43.35,15.299h1.273h189.977
				c10.199,0,17.85-7.648,17.85-17.85C492.15,416.288,484.5,409.913,474.301,409.913z"/>
			<path d="M342.975,369.112c5.1-12.75,6.375-26.775,1.275-39.525c-7.65-19.125-26.775-31.875-47.176-31.875
				c-6.375,0-11.475,1.275-17.85,2.551L178.5,337.237V208.463c0-8.925-5.1-17.85-14.025-22.95c-3.825-2.55-7.65-2.55-11.475-2.55
				c-5.1,0-10.2,1.275-14.025,3.825L28.05,262.013C10.2,273.487,0,293.888,0,314.288v114.75c0,30.6,22.95,57.375,53.55,62.475
				l52.275,8.926c3.825,0,7.65,1.273,11.475,1.273c25.5,0,49.725-16.574,59.925-40.799l6.375-17.85l131.326-48.451
				C326.4,392.063,337.875,381.862,342.975,369.112z"/>
		</g>
	</g>
</g>
</svg>